<mxfile host="65bd71144e" pages="7">
    <diagram id="AN2o8nIhkNRAFxIfcP1H" name="서비스 시나리오">
        <mxGraphModel dx="0" dy="705" grid="0" gridSize="10" guides="1" tooltips="1" connect="1" arrows="1" fold="1" page="1" pageScale="1" pageWidth="1654" pageHeight="1169" math="0" shadow="0">
            <root>
                <mxCell id="0"/>
                <mxCell id="1" parent="0"/>
                <mxCell id="Nej0Th8suB69gglMuK-W-1" value="" style="shape=actor;whiteSpace=wrap;html=1;" parent="1" vertex="1">
                    <mxGeometry x="75" y="290" width="50" height="60" as="geometry"/>
                </mxCell>
                <mxCell id="Nej0Th8suB69gglMuK-W-8" value="&lt;b&gt;Arduino&lt;br&gt;센서&lt;br&gt;&lt;/b&gt;" style="whiteSpace=wrap;html=1;aspect=fixed;fillColor=#b0e3e6;strokeColor=#0e8088;" parent="1" vertex="1">
                    <mxGeometry x="570" y="280" width="80" height="80" as="geometry"/>
                </mxCell>
                <mxCell id="11" style="edgeStyle=orthogonalEdgeStyle;elbow=vertical;html=1;exitX=0.25;exitY=0;exitDx=0;exitDy=0;strokeColor=default;" edge="1" parent="1" source="Nej0Th8suB69gglMuK-W-11">
                    <mxGeometry relative="1" as="geometry">
                        <mxPoint x="372" y="203" as="targetPoint"/>
                        <Array as="points">
                            <mxPoint x="325" y="186"/>
                            <mxPoint x="372" y="186"/>
                        </Array>
                    </mxGeometry>
                </mxCell>
                <mxCell id="Nej0Th8suB69gglMuK-W-11" value="Raspberry PI" style="swimlane;" parent="1" vertex="1">
                    <mxGeometry x="300" y="210" width="100" height="220" as="geometry">
                        <mxRectangle x="300" y="210" width="101" height="23" as="alternateBounds"/>
                    </mxGeometry>
                </mxCell>
                <mxCell id="Nej0Th8suB69gglMuK-W-9" value="&lt;b&gt;AI 모델&lt;/b&gt;" style="whiteSpace=wrap;html=1;aspect=fixed;fillColor=#dae8fc;strokeColor=#6c8ebf;" parent="Nej0Th8suB69gglMuK-W-11" vertex="1">
                    <mxGeometry x="10" y="40" width="80" height="80" as="geometry"/>
                </mxCell>
                <mxCell id="Nej0Th8suB69gglMuK-W-7" value="&lt;b&gt;음성인식&lt;br&gt;스피커&lt;/b&gt;" style="whiteSpace=wrap;html=1;aspect=fixed;fillColor=#d5e8d4;strokeColor=#82b366;" parent="Nej0Th8suB69gglMuK-W-11" vertex="1">
                    <mxGeometry x="10" y="130" width="80" height="80" as="geometry"/>
                </mxCell>
                <mxCell id="Nej0Th8suB69gglMuK-W-12" value="&lt;b&gt;사용자&lt;/b&gt;" style="text;html=1;align=center;verticalAlign=middle;resizable=0;points=[];autosize=1;strokeColor=none;fillColor=none;" parent="1" vertex="1">
                    <mxGeometry x="70" y="350" width="60" height="30" as="geometry"/>
                </mxCell>
                <mxCell id="Nej0Th8suB69gglMuK-W-13" value="" style="endArrow=classic;html=1;rounded=0;" parent="1" edge="1">
                    <mxGeometry width="50" height="50" relative="1" as="geometry">
                        <mxPoint x="150" y="300" as="sourcePoint"/>
                        <mxPoint x="280" y="300" as="targetPoint"/>
                    </mxGeometry>
                </mxCell>
                <mxCell id="Nej0Th8suB69gglMuK-W-14" value="" style="endArrow=classic;html=1;rounded=0;" parent="1" edge="1">
                    <mxGeometry width="50" height="50" relative="1" as="geometry">
                        <mxPoint x="280" y="340" as="sourcePoint"/>
                        <mxPoint x="150" y="340" as="targetPoint"/>
                    </mxGeometry>
                </mxCell>
                <mxCell id="Nej0Th8suB69gglMuK-W-17" value="&lt;b&gt;음성 명령 전달&lt;/b&gt;" style="text;html=1;align=center;verticalAlign=middle;resizable=0;points=[];autosize=1;strokeColor=none;fillColor=none;" parent="1" vertex="1">
                    <mxGeometry x="170" y="260" width="100" height="30" as="geometry"/>
                </mxCell>
                <mxCell id="Nej0Th8suB69gglMuK-W-18" value="&lt;b&gt;음성 명령 완료 피드백&lt;/b&gt;" style="text;html=1;align=center;verticalAlign=middle;resizable=0;points=[];autosize=1;strokeColor=none;fillColor=none;" parent="1" vertex="1">
                    <mxGeometry x="150" y="350" width="140" height="30" as="geometry"/>
                </mxCell>
                <mxCell id="Nej0Th8suB69gglMuK-W-19" value="&lt;b&gt;json파일 전달&lt;/b&gt;" style="text;html=1;align=center;verticalAlign=middle;resizable=0;points=[];autosize=1;strokeColor=none;fillColor=none;" parent="1" vertex="1">
                    <mxGeometry x="451" y="266" width="80" height="18" as="geometry"/>
                </mxCell>
                <mxCell id="Nej0Th8suB69gglMuK-W-20" value="&lt;b&gt;명령어 실행 피드백&lt;/b&gt;" style="text;html=1;align=center;verticalAlign=middle;resizable=0;points=[];autosize=1;strokeColor=none;fillColor=none;" parent="1" vertex="1">
                    <mxGeometry x="440" y="356" width="100" height="18" as="geometry"/>
                </mxCell>
                <mxCell id="Nej0Th8suB69gglMuK-W-21" value="" style="endArrow=classic;html=1;rounded=0;" parent="1" edge="1">
                    <mxGeometry width="50" height="50" relative="1" as="geometry">
                        <mxPoint x="670" y="300" as="sourcePoint"/>
                        <mxPoint x="670" y="340" as="targetPoint"/>
                        <Array as="points">
                            <mxPoint x="700" y="300"/>
                            <mxPoint x="700" y="340"/>
                        </Array>
                    </mxGeometry>
                </mxCell>
                <mxCell id="Nej0Th8suB69gglMuK-W-22" value="&lt;b&gt;json파일 해석&lt;/b&gt;" style="text;html=1;align=center;verticalAlign=middle;resizable=0;points=[];autosize=1;strokeColor=none;fillColor=none;" parent="1" vertex="1">
                    <mxGeometry x="707" y="311" width="80" height="18" as="geometry"/>
                </mxCell>
                <mxCell id="Nej0Th8suB69gglMuK-W-23" value="" style="endArrow=classic;html=1;rounded=0;" parent="1" edge="1">
                    <mxGeometry width="50" height="50" relative="1" as="geometry">
                        <mxPoint x="420" y="300.0000000000001" as="sourcePoint"/>
                        <mxPoint x="550" y="300.0000000000001" as="targetPoint"/>
                    </mxGeometry>
                </mxCell>
                <mxCell id="Nej0Th8suB69gglMuK-W-24" value="" style="endArrow=classic;html=1;rounded=0;" parent="1" edge="1">
                    <mxGeometry width="50" height="50" relative="1" as="geometry">
                        <mxPoint x="550" y="340.0000000000001" as="sourcePoint"/>
                        <mxPoint x="420" y="340.0000000000001" as="targetPoint"/>
                    </mxGeometry>
                </mxCell>
                <mxCell id="3" value="&lt;b&gt;데이터 요청/연산&lt;/b&gt;" style="text;html=1;align=center;verticalAlign=middle;resizable=0;points=[];autosize=1;strokeColor=none;fillColor=none;" vertex="1" parent="1">
                    <mxGeometry x="305.5" y="157" width="89" height="18" as="geometry"/>
                </mxCell>
            </root>
        </mxGraphModel>
    </diagram>
    <diagram id="K4p93vhSXadBxvPRT3XT" name="유스케이스 모델">
        <mxGraphModel dx="1422" dy="857" grid="0" gridSize="10" guides="1" tooltips="1" connect="1" arrows="1" fold="1" page="1" pageScale="1" pageWidth="1654" pageHeight="1169" math="0" shadow="0">
            <root>
                <mxCell id="0"/>
                <mxCell id="1" parent="0"/>
                <mxCell id="_mjYXdbmAta14kn6dO2K-1" value="사용자" style="shape=umlActor;verticalLabelPosition=bottom;verticalAlign=top;html=1;outlineConnect=0;" vertex="1" parent="1">
                    <mxGeometry x="310" y="250" width="30" height="60" as="geometry"/>
                </mxCell>
                <mxCell id="_mjYXdbmAta14kn6dO2K-3" value="" style="rounded=0;whiteSpace=wrap;html=1;" vertex="1" parent="1">
                    <mxGeometry x="480" y="70" width="430" height="730" as="geometry"/>
                </mxCell>
                <mxCell id="_mjYXdbmAta14kn6dO2K-4" value="음악 스트리밍" style="ellipse;whiteSpace=wrap;html=1;" vertex="1" parent="1">
                    <mxGeometry x="490" y="80" width="120" height="80" as="geometry"/>
                </mxCell>
                <mxCell id="_mjYXdbmAta14kn6dO2K-5" value="알람 설정" style="ellipse;whiteSpace=wrap;html=1;" vertex="1" parent="1">
                    <mxGeometry x="490" y="170" width="120" height="80" as="geometry"/>
                </mxCell>
                <mxCell id="_mjYXdbmAta14kn6dO2K-6" value="날씨 조회" style="ellipse;whiteSpace=wrap;html=1;" vertex="1" parent="1">
                    <mxGeometry x="490" y="260" width="120" height="80" as="geometry"/>
                </mxCell>
                <mxCell id="_mjYXdbmAta14kn6dO2K-7" value="AI 모델" style="ellipse;whiteSpace=wrap;html=1;" vertex="1" parent="1">
                    <mxGeometry x="490" y="350" width="120" height="80" as="geometry"/>
                </mxCell>
                <mxCell id="_mjYXdbmAta14kn6dO2K-8" value="음성 인식" style="ellipse;whiteSpace=wrap;html=1;" vertex="1" parent="1">
                    <mxGeometry x="490" y="440" width="120" height="80" as="geometry"/>
                </mxCell>
                <mxCell id="_mjYXdbmAta14kn6dO2K-9" value="냉, 난방기 제어" style="ellipse;whiteSpace=wrap;html=1;" vertex="1" parent="1">
                    <mxGeometry x="750" y="440" width="120" height="80" as="geometry"/>
                </mxCell>
                <mxCell id="_mjYXdbmAta14kn6dO2K-10" value="가스 밸브 제어" style="ellipse;whiteSpace=wrap;html=1;" vertex="1" parent="1">
                    <mxGeometry x="750" y="530" width="120" height="80" as="geometry"/>
                </mxCell>
                <mxCell id="_mjYXdbmAta14kn6dO2K-11" value="가습, 제습기 제어" style="ellipse;whiteSpace=wrap;html=1;" vertex="1" parent="1">
                    <mxGeometry x="750" y="350" width="120" height="80" as="geometry"/>
                </mxCell>
                <mxCell id="_mjYXdbmAta14kn6dO2K-12" value="창문 제어" style="ellipse;whiteSpace=wrap;html=1;" vertex="1" parent="1">
                    <mxGeometry x="750" y="620" width="120" height="80" as="geometry"/>
                </mxCell>
                <mxCell id="_mjYXdbmAta14kn6dO2K-13" value="LED 제어" style="ellipse;whiteSpace=wrap;html=1;" vertex="1" parent="1">
                    <mxGeometry x="750" y="710" width="120" height="80" as="geometry"/>
                </mxCell>
                <mxCell id="_mjYXdbmAta14kn6dO2K-14" value="" style="endArrow=classic;html=1;rounded=0;exitX=1;exitY=0.5;exitDx=0;exitDy=0;entryX=0;entryY=0.5;entryDx=0;entryDy=0;" edge="1" parent="1" source="_mjYXdbmAta14kn6dO2K-7" target="_mjYXdbmAta14kn6dO2K-11">
                    <mxGeometry width="50" height="50" relative="1" as="geometry">
                        <mxPoint x="700" y="470" as="sourcePoint"/>
                        <mxPoint x="750" y="420" as="targetPoint"/>
                    </mxGeometry>
                </mxCell>
                <mxCell id="_mjYXdbmAta14kn6dO2K-15" value="" style="endArrow=classic;html=1;rounded=0;exitX=1;exitY=0.5;exitDx=0;exitDy=0;entryX=0;entryY=0.5;entryDx=0;entryDy=0;" edge="1" parent="1" source="_mjYXdbmAta14kn6dO2K-7" target="_mjYXdbmAta14kn6dO2K-9">
                    <mxGeometry width="50" height="50" relative="1" as="geometry">
                        <mxPoint x="700" y="470" as="sourcePoint"/>
                        <mxPoint x="750" y="420" as="targetPoint"/>
                    </mxGeometry>
                </mxCell>
                <mxCell id="_mjYXdbmAta14kn6dO2K-16" value="" style="endArrow=classic;html=1;rounded=0;exitX=1;exitY=0.5;exitDx=0;exitDy=0;entryX=0;entryY=0.5;entryDx=0;entryDy=0;" edge="1" parent="1" source="_mjYXdbmAta14kn6dO2K-8" target="_mjYXdbmAta14kn6dO2K-11">
                    <mxGeometry width="50" height="50" relative="1" as="geometry">
                        <mxPoint x="700" y="470" as="sourcePoint"/>
                        <mxPoint x="750" y="420" as="targetPoint"/>
                    </mxGeometry>
                </mxCell>
                <mxCell id="_mjYXdbmAta14kn6dO2K-17" value="" style="endArrow=classic;html=1;rounded=0;exitX=1;exitY=0.5;exitDx=0;exitDy=0;entryX=0;entryY=0.5;entryDx=0;entryDy=0;" edge="1" parent="1" source="_mjYXdbmAta14kn6dO2K-8" target="_mjYXdbmAta14kn6dO2K-9">
                    <mxGeometry width="50" height="50" relative="1" as="geometry">
                        <mxPoint x="700" y="470" as="sourcePoint"/>
                        <mxPoint x="750" y="420" as="targetPoint"/>
                    </mxGeometry>
                </mxCell>
                <mxCell id="_mjYXdbmAta14kn6dO2K-18" value="" style="endArrow=classic;html=1;rounded=0;exitX=1;exitY=0.5;exitDx=0;exitDy=0;entryX=0;entryY=0.5;entryDx=0;entryDy=0;" edge="1" parent="1" source="_mjYXdbmAta14kn6dO2K-8" target="_mjYXdbmAta14kn6dO2K-10">
                    <mxGeometry width="50" height="50" relative="1" as="geometry">
                        <mxPoint x="700" y="470" as="sourcePoint"/>
                        <mxPoint x="750" y="420" as="targetPoint"/>
                    </mxGeometry>
                </mxCell>
                <mxCell id="_mjYXdbmAta14kn6dO2K-19" value="" style="endArrow=classic;html=1;rounded=0;exitX=1;exitY=0.5;exitDx=0;exitDy=0;entryX=0;entryY=0.5;entryDx=0;entryDy=0;" edge="1" parent="1" source="_mjYXdbmAta14kn6dO2K-8" target="_mjYXdbmAta14kn6dO2K-12">
                    <mxGeometry width="50" height="50" relative="1" as="geometry">
                        <mxPoint x="700" y="470" as="sourcePoint"/>
                        <mxPoint x="750" y="420" as="targetPoint"/>
                    </mxGeometry>
                </mxCell>
                <mxCell id="_mjYXdbmAta14kn6dO2K-20" value="" style="endArrow=classic;html=1;rounded=0;exitX=1;exitY=0.5;exitDx=0;exitDy=0;entryX=0;entryY=0.5;entryDx=0;entryDy=0;" edge="1" parent="1" source="_mjYXdbmAta14kn6dO2K-8" target="_mjYXdbmAta14kn6dO2K-13">
                    <mxGeometry width="50" height="50" relative="1" as="geometry">
                        <mxPoint x="700" y="470" as="sourcePoint"/>
                        <mxPoint x="750" y="420" as="targetPoint"/>
                    </mxGeometry>
                </mxCell>
                <mxCell id="_mjYXdbmAta14kn6dO2K-21" value="" style="endArrow=classic;html=1;rounded=0;entryX=0;entryY=0.5;entryDx=0;entryDy=0;" edge="1" parent="1" target="_mjYXdbmAta14kn6dO2K-4">
                    <mxGeometry width="50" height="50" relative="1" as="geometry">
                        <mxPoint x="360" y="280" as="sourcePoint"/>
                        <mxPoint x="750" y="320" as="targetPoint"/>
                    </mxGeometry>
                </mxCell>
                <mxCell id="_mjYXdbmAta14kn6dO2K-22" value="" style="endArrow=classic;html=1;rounded=0;entryX=0;entryY=0.5;entryDx=0;entryDy=0;" edge="1" parent="1" target="_mjYXdbmAta14kn6dO2K-5">
                    <mxGeometry width="50" height="50" relative="1" as="geometry">
                        <mxPoint x="360" y="280" as="sourcePoint"/>
                        <mxPoint x="750" y="320" as="targetPoint"/>
                    </mxGeometry>
                </mxCell>
                <mxCell id="_mjYXdbmAta14kn6dO2K-23" value="" style="endArrow=classic;html=1;rounded=0;entryX=0;entryY=0.5;entryDx=0;entryDy=0;" edge="1" parent="1" target="_mjYXdbmAta14kn6dO2K-6">
                    <mxGeometry width="50" height="50" relative="1" as="geometry">
                        <mxPoint x="360" y="280" as="sourcePoint"/>
                        <mxPoint x="460" y="310" as="targetPoint"/>
                    </mxGeometry>
                </mxCell>
                <mxCell id="_mjYXdbmAta14kn6dO2K-24" value="" style="endArrow=classic;html=1;rounded=0;entryX=0;entryY=0.5;entryDx=0;entryDy=0;" edge="1" parent="1" target="_mjYXdbmAta14kn6dO2K-7">
                    <mxGeometry width="50" height="50" relative="1" as="geometry">
                        <mxPoint x="360" y="280" as="sourcePoint"/>
                        <mxPoint x="750" y="320" as="targetPoint"/>
                    </mxGeometry>
                </mxCell>
                <mxCell id="_mjYXdbmAta14kn6dO2K-25" value="" style="endArrow=classic;html=1;rounded=0;entryX=0;entryY=0.5;entryDx=0;entryDy=0;" edge="1" parent="1" target="_mjYXdbmAta14kn6dO2K-8">
                    <mxGeometry width="50" height="50" relative="1" as="geometry">
                        <mxPoint x="360" y="280" as="sourcePoint"/>
                        <mxPoint x="750" y="320" as="targetPoint"/>
                    </mxGeometry>
                </mxCell>
            </root>
        </mxGraphModel>
    </diagram>
    <diagram id="IM6o3RJvESZPHAt8XOS_" name="서비스 개요">
        <mxGraphModel dx="1422" dy="857" grid="0" gridSize="10" guides="1" tooltips="1" connect="1" arrows="1" fold="1" page="1" pageScale="1" pageWidth="1654" pageHeight="1169" math="0" shadow="0">
            <root>
                <mxCell id="0"/>
                <mxCell id="1" parent="0"/>
                <mxCell id="qKcp56sgiVEcNhZEq9_p-2" value="Arduino" style="swimlane;whiteSpace=wrap;html=1;startSize=30;" vertex="1" parent="1">
                    <mxGeometry x="760" y="260" width="200" height="250" as="geometry"/>
                </mxCell>
                <mxCell id="qKcp56sgiVEcNhZEq9_p-6" value="서보 모터" style="rounded=0;whiteSpace=wrap;html=1;" vertex="1" parent="qKcp56sgiVEcNhZEq9_p-2">
                    <mxGeometry x="40" y="40" width="120" height="60" as="geometry"/>
                </mxCell>
                <mxCell id="qKcp56sgiVEcNhZEq9_p-7" value="LED" style="rounded=0;whiteSpace=wrap;html=1;" vertex="1" parent="qKcp56sgiVEcNhZEq9_p-2">
                    <mxGeometry x="40" y="110" width="120" height="60" as="geometry"/>
                </mxCell>
                <mxCell id="qKcp56sgiVEcNhZEq9_p-8" value="온/습도" style="rounded=0;whiteSpace=wrap;html=1;" vertex="1" parent="qKcp56sgiVEcNhZEq9_p-2">
                    <mxGeometry x="40" y="180" width="120" height="60" as="geometry"/>
                </mxCell>
                <mxCell id="qKcp56sgiVEcNhZEq9_p-3" value="음성인식 스피커" style="swimlane;whiteSpace=wrap;html=1;startSize=30;" vertex="1" parent="1">
                    <mxGeometry x="460" y="260" width="200" height="180" as="geometry"/>
                </mxCell>
                <mxCell id="qKcp56sgiVEcNhZEq9_p-10" value="음성 인식" style="rounded=0;whiteSpace=wrap;html=1;" vertex="1" parent="qKcp56sgiVEcNhZEq9_p-3">
                    <mxGeometry x="40" y="40" width="120" height="60" as="geometry"/>
                </mxCell>
                <mxCell id="qKcp56sgiVEcNhZEq9_p-11" value="AI 모델" style="rounded=0;whiteSpace=wrap;html=1;" vertex="1" parent="qKcp56sgiVEcNhZEq9_p-3">
                    <mxGeometry x="40" y="110" width="120" height="60" as="geometry"/>
                </mxCell>
                <mxCell id="qKcp56sgiVEcNhZEq9_p-12" value="사용자" style="swimlane;whiteSpace=wrap;html=1;startSize=30;" vertex="1" parent="1">
                    <mxGeometry x="160" y="260" width="200" height="130" as="geometry"/>
                </mxCell>
                <mxCell id="qKcp56sgiVEcNhZEq9_p-16" value="" style="shape=actor;whiteSpace=wrap;html=1;" vertex="1" parent="qKcp56sgiVEcNhZEq9_p-12">
                    <mxGeometry x="65" y="40" width="70" height="80" as="geometry"/>
                </mxCell>
                <mxCell id="qKcp56sgiVEcNhZEq9_p-19" value="" style="shape=doubleArrow;direction=south;whiteSpace=wrap;html=1;arrowWidth=0.36666666666666664;arrowSize=0.2;rotation=-90;fillColor=#000000;" vertex="1" parent="1">
                    <mxGeometry x="390" y="290" width="40" height="80" as="geometry"/>
                </mxCell>
                <mxCell id="qKcp56sgiVEcNhZEq9_p-21" value="" style="shape=doubleArrow;direction=south;whiteSpace=wrap;html=1;arrowWidth=0.36666666666666664;arrowSize=0.2;rotation=-90;fillColor=#000000;" vertex="1" parent="1">
                    <mxGeometry x="690" y="290" width="40" height="80" as="geometry"/>
                </mxCell>
            </root>
        </mxGraphModel>
    </diagram>
    <diagram id="3_F2XkSSNo1tq0a8S2Ru" name="시스템 아키텍쳐">
        <mxGraphModel dx="1422" dy="857" grid="0" gridSize="10" guides="1" tooltips="1" connect="1" arrows="1" fold="1" page="1" pageScale="1" pageWidth="1654" pageHeight="1169" math="0" shadow="0">
            <root>
                <mxCell id="0"/>
                <mxCell id="1" parent="0"/>
                <mxCell id="3crfw0aEwqQac2gcfLyZ-3" value="Raspberry PI" style="swimlane;whiteSpace=wrap;html=1;fillColor=#FFFFFF;startSize=30;" vertex="1" parent="1">
                    <mxGeometry x="460" y="240" width="280" height="180" as="geometry"/>
                </mxCell>
                <mxCell id="3crfw0aEwqQac2gcfLyZ-5" value="Raspberry PI OS" style="rounded=0;whiteSpace=wrap;html=1;fillColor=#FFFFFF;" vertex="1" parent="3crfw0aEwqQac2gcfLyZ-3">
                    <mxGeometry x="10" y="110" width="260" height="60" as="geometry"/>
                </mxCell>
                <mxCell id="3crfw0aEwqQac2gcfLyZ-6" value="마이크, 스피커" style="rounded=0;whiteSpace=wrap;html=1;fillColor=#FFFFFF;" vertex="1" parent="3crfw0aEwqQac2gcfLyZ-3">
                    <mxGeometry x="150" y="40" width="120" height="60" as="geometry"/>
                </mxCell>
                <mxCell id="3crfw0aEwqQac2gcfLyZ-9" value="AI 모델" style="rounded=0;whiteSpace=wrap;html=1;fillColor=#FFFFFF;" vertex="1" parent="3crfw0aEwqQac2gcfLyZ-3">
                    <mxGeometry x="10" y="40" width="120" height="60" as="geometry"/>
                </mxCell>
                <mxCell id="3crfw0aEwqQac2gcfLyZ-4" value="Arduino" style="swimlane;whiteSpace=wrap;html=1;fillColor=#FFFFFF;startSize=30;" vertex="1" parent="1">
                    <mxGeometry x="840" y="240" width="140" height="180" as="geometry"/>
                </mxCell>
                <mxCell id="3crfw0aEwqQac2gcfLyZ-7" value="센서" style="rounded=0;whiteSpace=wrap;html=1;fillColor=#FFFFFF;" vertex="1" parent="3crfw0aEwqQac2gcfLyZ-4">
                    <mxGeometry x="10" y="40" width="120" height="60" as="geometry"/>
                </mxCell>
                <mxCell id="3crfw0aEwqQac2gcfLyZ-8" value="통신" style="rounded=0;whiteSpace=wrap;html=1;fillColor=#FFFFFF;" vertex="1" parent="3crfw0aEwqQac2gcfLyZ-4">
                    <mxGeometry x="10" y="110" width="120" height="60" as="geometry"/>
                </mxCell>
                <mxCell id="3crfw0aEwqQac2gcfLyZ-11" value="" style="endArrow=none;html=1;rounded=0;entryX=0;entryY=0.5;entryDx=0;entryDy=0;exitX=1;exitY=0.5;exitDx=0;exitDy=0;" edge="1" parent="1" source="3crfw0aEwqQac2gcfLyZ-3" target="3crfw0aEwqQac2gcfLyZ-4">
                    <mxGeometry width="50" height="50" relative="1" as="geometry">
                        <mxPoint x="700" y="470" as="sourcePoint"/>
                        <mxPoint x="750" y="420" as="targetPoint"/>
                    </mxGeometry>
                </mxCell>
            </root>
        </mxGraphModel>
    </diagram>
    <diagram id="Ndu0KYS2mInk8-dew-Xi" name="아두이노 서비스">
        <mxGraphModel dx="813" dy="490" grid="0" gridSize="10" guides="1" tooltips="1" connect="1" arrows="1" fold="1" page="1" pageScale="1" pageWidth="1654" pageHeight="1169" math="0" shadow="0">
            <root>
                <mxCell id="0"/>
                <mxCell id="1" parent="0"/>
                <mxCell id="tfQ53mq_QmIg5jB8TceY-1" value="Raspberry PI" style="swimlane;whiteSpace=wrap;html=1;fillColor=#FFFFFF;startSize=30;" vertex="1" parent="1">
                    <mxGeometry x="640" y="240" width="140" height="110" as="geometry"/>
                </mxCell>
                <mxCell id="tfQ53mq_QmIg5jB8TceY-3" value="마이크, 스피커" style="rounded=0;whiteSpace=wrap;html=1;fillColor=#FFFFFF;" vertex="1" parent="tfQ53mq_QmIg5jB8TceY-1">
                    <mxGeometry x="10" y="40" width="120" height="60" as="geometry"/>
                </mxCell>
                <mxCell id="tfQ53mq_QmIg5jB8TceY-5" value="Arduino" style="swimlane;whiteSpace=wrap;html=1;fillColor=#FFFFFF;startSize=30;" vertex="1" parent="1">
                    <mxGeometry x="900" y="240" width="140" height="110" as="geometry"/>
                </mxCell>
                <mxCell id="tfQ53mq_QmIg5jB8TceY-6" value="센서" style="rounded=0;whiteSpace=wrap;html=1;fillColor=#FFFFFF;" vertex="1" parent="tfQ53mq_QmIg5jB8TceY-5">
                    <mxGeometry x="10" y="40" width="120" height="60" as="geometry"/>
                </mxCell>
                <mxCell id="nFmJKaU71pBNZRuWlIVw-1" value="" style="shape=actor;whiteSpace=wrap;html=1;fillColor=#FFFFFF;" vertex="1" parent="1">
                    <mxGeometry x="470" y="270" width="50" height="70" as="geometry"/>
                </mxCell>
                <mxCell id="nFmJKaU71pBNZRuWlIVw-5" value="" style="endArrow=classic;html=1;rounded=0;" edge="1" parent="1">
                    <mxGeometry width="50" height="50" relative="1" as="geometry">
                        <mxPoint x="630" y="330" as="sourcePoint"/>
                        <mxPoint x="530" y="330" as="targetPoint"/>
                    </mxGeometry>
                </mxCell>
                <mxCell id="nFmJKaU71pBNZRuWlIVw-6" value="" style="endArrow=classic;html=1;rounded=0;" edge="1" parent="1">
                    <mxGeometry width="50" height="50" relative="1" as="geometry">
                        <mxPoint x="530" y="290" as="sourcePoint"/>
                        <mxPoint x="630" y="290" as="targetPoint"/>
                    </mxGeometry>
                </mxCell>
                <mxCell id="nFmJKaU71pBNZRuWlIVw-7" value="" style="endArrow=classic;html=1;rounded=0;" edge="1" parent="1">
                    <mxGeometry width="50" height="50" relative="1" as="geometry">
                        <mxPoint x="790" y="290" as="sourcePoint"/>
                        <mxPoint x="890" y="290" as="targetPoint"/>
                    </mxGeometry>
                </mxCell>
                <mxCell id="nFmJKaU71pBNZRuWlIVw-8" value="" style="endArrow=classic;html=1;rounded=0;" edge="1" parent="1">
                    <mxGeometry width="50" height="50" relative="1" as="geometry">
                        <mxPoint x="890" y="330" as="sourcePoint"/>
                        <mxPoint x="790" y="330" as="targetPoint"/>
                    </mxGeometry>
                </mxCell>
                <mxCell id="nFmJKaU71pBNZRuWlIVw-9" value="" style="endArrow=classic;html=1;rounded=0;" edge="1" parent="1">
                    <mxGeometry width="50" height="50" relative="1" as="geometry">
                        <mxPoint x="1050" y="290" as="sourcePoint"/>
                        <mxPoint x="1050" y="330" as="targetPoint"/>
                        <Array as="points">
                            <mxPoint x="1080" y="290"/>
                            <mxPoint x="1080" y="330"/>
                        </Array>
                    </mxGeometry>
                </mxCell>
                <mxCell id="nFmJKaU71pBNZRuWlIVw-10" value="센서 작동" style="text;html=1;align=center;verticalAlign=middle;resizable=0;points=[];autosize=1;strokeColor=none;fillColor=none;" vertex="1" parent="1">
                    <mxGeometry x="1080" y="290" width="70" height="30" as="geometry"/>
                </mxCell>
                <mxCell id="nFmJKaU71pBNZRuWlIVw-11" value="사용자" style="text;html=1;align=center;verticalAlign=middle;resizable=0;points=[];autosize=1;strokeColor=none;fillColor=none;" vertex="1" parent="1">
                    <mxGeometry x="465" y="340" width="60" height="30" as="geometry"/>
                </mxCell>
                <mxCell id="nFmJKaU71pBNZRuWlIVw-12" value="명령 전달" style="text;html=1;align=center;verticalAlign=middle;resizable=0;points=[];autosize=1;strokeColor=none;fillColor=none;" vertex="1" parent="1">
                    <mxGeometry x="540" y="260" width="70" height="30" as="geometry"/>
                </mxCell>
                <mxCell id="nFmJKaU71pBNZRuWlIVw-13" value="제어 명령 전달" style="text;html=1;align=center;verticalAlign=middle;resizable=0;points=[];autosize=1;strokeColor=none;fillColor=none;" vertex="1" parent="1">
                    <mxGeometry x="790" y="260" width="100" height="30" as="geometry"/>
                </mxCell>
                <mxCell id="nFmJKaU71pBNZRuWlIVw-14" value="음성 피드백" style="text;html=1;align=center;verticalAlign=middle;resizable=0;points=[];autosize=1;strokeColor=none;fillColor=none;" vertex="1" parent="1">
                    <mxGeometry x="530" y="330" width="90" height="30" as="geometry"/>
                </mxCell>
                <mxCell id="nFmJKaU71pBNZRuWlIVw-15" value="제어 피드백 전달" style="text;html=1;align=center;verticalAlign=middle;resizable=0;points=[];autosize=1;strokeColor=none;fillColor=none;" vertex="1" parent="1">
                    <mxGeometry x="785" y="330" width="110" height="30" as="geometry"/>
                </mxCell>
            </root>
        </mxGraphModel>
    </diagram>
    <diagram id="3R1ZrDm_Cj4CojIVX26S" name="스퍼커 서비스">
        <mxGraphModel dx="666" dy="564" grid="0" gridSize="10" guides="1" tooltips="1" connect="1" arrows="1" fold="1" page="1" pageScale="1" pageWidth="1654" pageHeight="1169" math="0" shadow="0">
            <root>
                <mxCell id="0"/>
                <mxCell id="1" parent="0"/>
                <mxCell id="mL9-cnGB8i-CLFsxaYWr-1" value="Raspberry PI" style="swimlane;whiteSpace=wrap;html=1;fillColor=#FFFFFF;startSize=30;" parent="1" vertex="1">
                    <mxGeometry x="640" y="240" width="140" height="180" as="geometry"/>
                </mxCell>
                <mxCell id="mL9-cnGB8i-CLFsxaYWr-2" value="마이크, 스피커" style="rounded=0;whiteSpace=wrap;html=1;fillColor=#FFFFFF;" parent="mL9-cnGB8i-CLFsxaYWr-1" vertex="1">
                    <mxGeometry x="10" y="40" width="120" height="60" as="geometry"/>
                </mxCell>
                <mxCell id="DVaf42i541ibWbjso1cW-1" value="GPT-3" style="rounded=0;whiteSpace=wrap;html=1;fillColor=#FFFFFF;" parent="mL9-cnGB8i-CLFsxaYWr-1" vertex="1">
                    <mxGeometry x="10" y="110" width="120" height="60" as="geometry"/>
                </mxCell>
                <mxCell id="mL9-cnGB8i-CLFsxaYWr-5" value="" style="shape=actor;whiteSpace=wrap;html=1;fillColor=#FFFFFF;" parent="1" vertex="1">
                    <mxGeometry x="470" y="310" width="50" height="70" as="geometry"/>
                </mxCell>
                <mxCell id="mL9-cnGB8i-CLFsxaYWr-6" value="" style="endArrow=classic;html=1;rounded=0;" parent="1" edge="1">
                    <mxGeometry width="50" height="50" relative="1" as="geometry">
                        <mxPoint x="630" y="370" as="sourcePoint"/>
                        <mxPoint x="530" y="370" as="targetPoint"/>
                    </mxGeometry>
                </mxCell>
                <mxCell id="mL9-cnGB8i-CLFsxaYWr-7" value="" style="endArrow=classic;html=1;rounded=0;" parent="1" edge="1">
                    <mxGeometry width="50" height="50" relative="1" as="geometry">
                        <mxPoint x="530" y="320" as="sourcePoint"/>
                        <mxPoint x="630" y="320" as="targetPoint"/>
                    </mxGeometry>
                </mxCell>
                <mxCell id="mL9-cnGB8i-CLFsxaYWr-10" value="" style="endArrow=classic;html=1;rounded=0;" parent="1" edge="1">
                    <mxGeometry width="50" height="50" relative="1" as="geometry">
                        <mxPoint x="790" y="320" as="sourcePoint"/>
                        <mxPoint x="790" y="370" as="targetPoint"/>
                        <Array as="points">
                            <mxPoint x="820" y="320"/>
                            <mxPoint x="820" y="370"/>
                        </Array>
                    </mxGeometry>
                </mxCell>
                <mxCell id="mL9-cnGB8i-CLFsxaYWr-11" value="스피커 기능 수행" style="text;html=1;align=center;verticalAlign=middle;resizable=0;points=[];autosize=1;strokeColor=none;fillColor=none;" parent="1" vertex="1">
                    <mxGeometry x="820" y="330" width="110" height="30" as="geometry"/>
                </mxCell>
                <mxCell id="mL9-cnGB8i-CLFsxaYWr-12" value="사용자" style="text;html=1;align=center;verticalAlign=middle;resizable=0;points=[];autosize=1;strokeColor=none;fillColor=none;" parent="1" vertex="1">
                    <mxGeometry x="465" y="380" width="60" height="30" as="geometry"/>
                </mxCell>
                <mxCell id="mL9-cnGB8i-CLFsxaYWr-13" value="명령 전달" style="text;html=1;align=center;verticalAlign=middle;resizable=0;points=[];autosize=1;strokeColor=none;fillColor=none;" parent="1" vertex="1">
                    <mxGeometry x="540" y="290" width="70" height="30" as="geometry"/>
                </mxCell>
                <mxCell id="mL9-cnGB8i-CLFsxaYWr-15" value="음성 피드백" style="text;html=1;align=center;verticalAlign=middle;resizable=0;points=[];autosize=1;strokeColor=none;fillColor=none;" parent="1" vertex="1">
                    <mxGeometry x="530" y="370" width="90" height="30" as="geometry"/>
                </mxCell>
            </root>
        </mxGraphModel>
    </diagram>
    <diagram id="ACHjmSCUkp-A1IWohF_a" name="AI 서비스">
        <mxGraphModel dx="1185" dy="714" grid="0" gridSize="10" guides="1" tooltips="1" connect="1" arrows="1" fold="1" page="1" pageScale="1" pageWidth="1654" pageHeight="1169" math="0" shadow="0">
            <root>
                <mxCell id="0"/>
                <mxCell id="1" parent="0"/>
                <mxCell id="Z7IvadWdb0o_fqHX7FOD-1" value="Raspberry PI" style="swimlane;whiteSpace=wrap;html=1;fillColor=#FFFFFF;startSize=30;" vertex="1" parent="1">
                    <mxGeometry x="630" y="240" width="140" height="110" as="geometry"/>
                </mxCell>
                <mxCell id="Z7IvadWdb0o_fqHX7FOD-2" value="AI 모델" style="rounded=0;whiteSpace=wrap;html=1;fillColor=#FFFFFF;" vertex="1" parent="Z7IvadWdb0o_fqHX7FOD-1">
                    <mxGeometry x="10" y="40" width="120" height="60" as="geometry"/>
                </mxCell>
                <mxCell id="Z7IvadWdb0o_fqHX7FOD-3" value="Arduino" style="swimlane;whiteSpace=wrap;html=1;fillColor=#FFFFFF;startSize=30;" vertex="1" parent="1">
                    <mxGeometry x="910" y="240" width="140" height="110" as="geometry"/>
                </mxCell>
                <mxCell id="Z7IvadWdb0o_fqHX7FOD-4" value="센서" style="rounded=0;whiteSpace=wrap;html=1;fillColor=#FFFFFF;" vertex="1" parent="Z7IvadWdb0o_fqHX7FOD-3">
                    <mxGeometry x="10" y="40" width="120" height="60" as="geometry"/>
                </mxCell>
                <mxCell id="Z7IvadWdb0o_fqHX7FOD-8" value="" style="endArrow=classic;html=1;rounded=0;" edge="1" parent="1">
                    <mxGeometry width="50" height="50" relative="1" as="geometry">
                        <mxPoint x="780" y="330" as="sourcePoint"/>
                        <mxPoint x="900" y="330" as="targetPoint"/>
                    </mxGeometry>
                </mxCell>
                <mxCell id="Z7IvadWdb0o_fqHX7FOD-10" value="" style="endArrow=classic;html=1;rounded=0;" edge="1" parent="1">
                    <mxGeometry width="50" height="50" relative="1" as="geometry">
                        <mxPoint x="1060" y="290" as="sourcePoint"/>
                        <mxPoint x="1060" y="330" as="targetPoint"/>
                        <Array as="points">
                            <mxPoint x="1090" y="290"/>
                            <mxPoint x="1090" y="330"/>
                        </Array>
                    </mxGeometry>
                </mxCell>
                <mxCell id="Z7IvadWdb0o_fqHX7FOD-11" value="센서 작동" style="text;html=1;align=center;verticalAlign=middle;resizable=0;points=[];autosize=1;strokeColor=none;fillColor=none;" vertex="1" parent="1">
                    <mxGeometry x="1080" y="290" width="70" height="30" as="geometry"/>
                </mxCell>
                <mxCell id="Z7IvadWdb0o_fqHX7FOD-14" value="제어 명령 전달" style="text;html=1;align=center;verticalAlign=middle;resizable=0;points=[];autosize=1;strokeColor=none;fillColor=none;" vertex="1" parent="1">
                    <mxGeometry x="790" y="300" width="100" height="30" as="geometry"/>
                </mxCell>
                <mxCell id="GVKjTWHVlKBlE30Q1Qqm-3" value="" style="endArrow=classic;html=1;rounded=0;" edge="1" parent="1">
                    <mxGeometry width="50" height="50" relative="1" as="geometry">
                        <mxPoint x="900" y="290" as="sourcePoint"/>
                        <mxPoint x="780" y="290" as="targetPoint"/>
                    </mxGeometry>
                </mxCell>
                <mxCell id="GVKjTWHVlKBlE30Q1Qqm-5" value="온/습도 센서 데이터 전송" style="text;html=1;align=center;verticalAlign=middle;resizable=0;points=[];autosize=1;strokeColor=none;fillColor=none;" vertex="1" parent="1">
                    <mxGeometry x="760" y="260" width="160" height="30" as="geometry"/>
                </mxCell>
            </root>
        </mxGraphModel>
    </diagram>
</mxfile>